<svg xmlns="http://www.w3.org/2000/svg" viewBox="0 0 1200 630" role="img" aria-label="Offband"><defs><style>@import url('https://fonts.googleapis.com/css2?family=JetBrains+Mono:wght@500&amp;display=swap');</style></defs><rect width="1200" height="630" fill="#0F1412"/><g transform="translate(190.3 207.2) scale(1.7)"><g transform="translate(-0.8 -14.15) scale(2.157)"><path d="M29.5 26.1 A12 12 0 1 0 39.7 35.3" fill="none" stroke="#4DC580" stroke-width="2.4" stroke-linecap="round"/><path d="M30.3 19.1 A19 19 0 1 0 46.5 33.7" fill="none" stroke="#4DC580" stroke-width="2.4" stroke-linecap="round" opacity="0.5"/><circle cx="28" cy="38" r="3.6" fill="#7BEFA8"/><circle cx="46.1" cy="17.9" r="3" fill="#7BEFA8"/></g><text x="138" y="82" font-family="'JetBrains Mono','JetBrains Mono NL',ui-monospace,SFMono-Regular,Menlo,monospace" font-weight="500" font-size="76" letter-spacing="1" fill="#EFF3E8">offband</text><rect x="138.0" y="98.0" width="14" height="6" rx="3.0" fill="#EFF3E8"/><rect x="156.0" y="98.0" width="14" height="6" rx="3.0" fill="#EFF3E8"/><rect x="174.0" y="98.0" width="14" height="6" rx="3.0" fill="#EFF3E8"/><circle cx="201.0" cy="101.0" r="3.0" fill="#EFF3E8"/><circle cx="211.0" cy="101.0" r="3.0" fill="#EFF3E8"/><rect x="218.0" y="98.0" width="14" height="6" rx="3.0" fill="#EFF3E8"/><circle cx="239.0" cy="101.0" r="3.0" fill="#EFF3E8"/><circle cx="255.0" cy="101.0" r="3.0" fill="#EFF3E8"/><circle cx="265.0" cy="101.0" r="3.0" fill="#EFF3E8"/><rect x="272.0" y="98.0" width="14" height="6" rx="3.0" fill="#EFF3E8"/><circle cx="293.0" cy="101.0" r="3.0" fill="#EFF3E8"/><rect x="306.0" y="98.0" width="14" height="6" rx="3.0" fill="#EFF3E8"/><circle cx="327.0" cy="101.0" r="3.0" fill="#EFF3E8"/><circle cx="337.0" cy="101.0" r="3.0" fill="#EFF3E8"/><circle cx="347.0" cy="101.0" r="3.0" fill="#EFF3E8"/><circle cx="363.0" cy="101.0" r="3.0" fill="#EFF3E8"/><rect x="370.0" y="98.0" width="14" height="6" rx="3.0" fill="#EFF3E8"/><rect x="394.0" y="98.0" width="14" height="6" rx="3.0" fill="#EFF3E8"/><circle cx="415.0" cy="101.0" r="3.0" fill="#EFF3E8"/><rect x="428.0" y="98.0" width="14" height="6" rx="3.0" fill="#EFF3E8"/><circle cx="449.0" cy="101.0" r="3.0" fill="#EFF3E8"/><circle cx="459.0" cy="101.0" r="3.0" fill="#EFF3E8"/></g></svg>
